<svg width="24" height="24" viewBox="0 0 24 24" fill="none" xmlns="http://www.w3.org/2000/svg">
<path d="M17.3858 17.9258C17.6301 17.8243 17.8243 17.6301 17.9258 17.3858C17.977 17.2656 18.0042 17.1365 18.0058 17.0058V11.0058C18.0058 10.7406 17.9004 10.4862 17.7129 10.2987C17.5254 10.1112 17.271 10.0058 17.0058 10.0058C16.7406 10.0058 16.4862 10.1112 16.2987 10.2987C16.1112 10.4862 16.0058 10.7406 16.0058 11.0058V14.5958L7.7158 6.2958C7.62283 6.20207 7.51223 6.12768 7.39038 6.07691C7.26852 6.02614 7.13781 6 7.0058 6C6.87379 6 6.74308 6.02614 6.62122 6.07691C6.49936 6.12768 6.38876 6.20207 6.2958 6.2958C6.20207 6.38876 6.12768 6.49936 6.07691 6.62122C6.02614 6.74308 6 6.87379 6 7.0058C6 7.13781 6.02614 7.26852 6.07691 7.39038C6.12768 7.51223 6.20207 7.62284 6.2958 7.7158L14.5958 16.0058H11.0058C10.7406 16.0058 10.4862 16.1112 10.2987 16.2987C10.1112 16.4862 10.0058 16.7406 10.0058 17.0058C10.0058 17.271 10.1112 17.5254 10.2987 17.7129C10.4862 17.9004 10.7406 18.0058 11.0058 18.0058H17.0058C17.1365 18.0042 17.2656 17.977 17.3858 17.9258Z" fill="#970C0C"/>
</svg>
