<svg width="24" height="24" viewBox="0 0 24 24" fill="none" xmlns="http://www.w3.org/2000/svg">
<path d="M17.9258 6.6142C17.8243 6.36985 17.6301 6.17568 17.3858 6.0742C17.2656 6.02296 17.1365 5.99578 17.0058 5.9942H11.0058C10.7406 5.9942 10.4862 6.09956 10.2987 6.2871C10.1112 6.47463 10.0058 6.72899 10.0058 6.9942C10.0058 7.25942 10.1112 7.51377 10.2987 7.70131C10.4862 7.88884 10.7406 7.9942 11.0058 7.9942H14.5958L6.2958 16.2842C6.20207 16.3772 6.12768 16.4878 6.07691 16.6096C6.02614 16.7315 6 16.8622 6 16.9942C6 17.1262 6.02614 17.2569 6.07691 17.3788C6.12768 17.5006 6.20207 17.6112 6.2958 17.7042C6.38876 17.7979 6.49936 17.8723 6.62122 17.9231C6.74308 17.9739 6.87379 18 7.0058 18C7.13781 18 7.26852 17.9739 7.39038 17.9231C7.51223 17.8723 7.62284 17.7979 7.7158 17.7042L16.0058 9.4042V12.9942C16.0058 13.2594 16.1112 13.5138 16.2987 13.7013C16.4862 13.8888 16.7406 13.9942 17.0058 13.9942C17.271 13.9942 17.5254 13.8888 17.7129 13.7013C17.9004 13.5138 18.0058 13.2594 18.0058 12.9942V6.9942C18.0042 6.86352 17.977 6.73442 17.9258 6.6142Z" fill="#49970C"/>
</svg>
