<svg width="24" height="24" viewBox="0 0 24 24" fill="none" xmlns="http://www.w3.org/2000/svg">
<path d="M17.9258 6.62C17.8243 6.37565 17.6301 6.18147 17.3858 6.08C17.2656 6.02876 17.1365 6.00158 17.0058 6H11.0058C10.7406 6 10.4862 6.10536 10.2987 6.29289C10.1112 6.48043 10.0058 6.73478 10.0058 7C10.0058 7.26522 10.1112 7.51957 10.2987 7.70711C10.4862 7.89464 10.7406 8 11.0058 8H14.5958L6.2958 16.29C6.20207 16.383 6.12768 16.4936 6.07691 16.6154C6.02614 16.7373 6 16.868 6 17C6 17.132 6.02614 17.2627 6.07691 17.3846C6.12768 17.5064 6.20207 17.617 6.2958 17.71C6.38876 17.8037 6.49936 17.8781 6.62122 17.9289C6.74308 17.9797 6.87379 18.0058 7.0058 18.0058C7.13781 18.0058 7.26852 17.9797 7.39038 17.9289C7.51223 17.8781 7.62284 17.8037 7.7158 17.71L16.0058 9.41V13C16.0058 13.2652 16.1112 13.5196 16.2987 13.7071C16.4862 13.8946 16.7406 14 17.0058 14C17.271 14 17.5254 13.8946 17.7129 13.7071C17.9004 13.5196 18.0058 13.2652 18.0058 13V7C18.0042 6.86932 17.977 6.74022 17.9258 6.62Z" fill="#49970C"/>
<path d="M16.1591 3C16.0712 3 16 3.22386 16 3.5C16 3.77614 16.0712 4 16.1591 4H19.3409C19.4288 4 19.5 3.77614 19.5 3.5C19.5 3.22386 19.4288 3 19.3409 3H16.1591Z" fill="#0C5497"/>
<path d="M10.6591 3C10.5712 3 10.5 3.22386 10.5 3.5C10.5 3.77614 10.5712 4 10.6591 4H13.8409C13.9288 4 14 3.77614 14 3.5C14 3.22386 13.9288 3 13.8409 3H10.6591Z" fill="#0C5497"/>
<path d="M5.15909 3C5.07123 3 5 3.22386 5 3.5C5 3.77614 5.07123 4 5.15909 4H8.34091C8.42877 4 8.5 3.77614 8.5 3.5C8.5 3.22386 8.42877 3 8.34091 3H5.15909Z" fill="#0C5497"/>
</svg>
