<svg width="24" height="24" viewBox="0 0 24 24" fill="none" xmlns="http://www.w3.org/2000/svg">
<path d="M16.1591 11C16.0712 11 16 11.2239 16 11.5C16 11.7761 16.0712 12 16.1591 12H19.3409C19.4288 12 19.5 11.7761 19.5 11.5C19.5 11.2239 19.4288 11 19.3409 11H16.1591Z" fill="#49970C"/>
<path d="M10.6591 11C10.5712 11 10.5 11.2239 10.5 11.5C10.5 11.7761 10.5712 12 10.6591 12H13.8409C13.9288 12 14 11.7761 14 11.5C14 11.2239 13.9288 11 13.8409 11H10.6591Z" fill="#49970C"/>
<path d="M5.15909 11C5.07123 11 5 11.2239 5 11.5C5 11.7761 5.07123 12 5.15909 12H8.34091C8.42877 12 8.5 11.7761 8.5 11.5C8.5 11.2239 8.42877 11 8.34091 11H5.15909Z" fill="#49970C"/>
</svg>
