<svg width="29" height="34" viewBox="0 0 29 34" fill="none" xmlns="http://www.w3.org/2000/svg">
<path d="M10.6667 0.333313C9.66667 0.333313 9 0.99998 9 1.99998V32C9 33 9.66667 33.6667 10.6667 33.6667C11.6667 33.6667 12.3333 33 12.3333 32V1.99998C12.3333 0.99998 11.6667 0.333313 10.6667 0.333313ZM2.33333 17C1.33333 17 0.666668 17.6666 0.666668 18.6666V32C0.666668 33 1.33333 33.6667 2.33333 33.6667C3.33333 33.6667 4 33 4 32V18.6666C4 17.6666 3.33333 17 2.33333 17ZM19 10.3333C18 10.3333 17.3333 11 17.3333 12V32C17.3333 33 18 33.6667 19 33.6667C20 33.6667 20.6667 33 20.6667 32V12C20.6667 11 20 10.3333 19 10.3333ZM27.3333 23.6667C26.3333 23.6667 25.6667 24.3333 25.6667 25.3333V32C25.6667 33 26.3333 33.6667 27.3333 33.6667C28.3333 33.6667 29 33 29 32V25.3333C29 24.3333 28.3333 23.6667 27.3333 23.6667Z" fill="#332317"/>
</svg>
