<svg width="42" height="36" viewBox="0 0 42 36" fill="none" xmlns="http://www.w3.org/2000/svg">
<path fill-rule="evenodd" clip-rule="evenodd" d="M33.0216 12.8679C32.4827 13.4427 32 14.4282 32 16C32 17.1046 31.1046 18 30 18C28.8954 18 28 17.1046 28 16C28 13.5719 28.7673 11.5573 30.1034 10.1321C31.43 8.71715 33.2134 8 35 8C36.7866 8 38.57 8.71715 39.8966 10.1321C41.2327 11.5573 42 13.5719 42 16.0001C42 17.1046 41.1046 18.0001 40 18.0001C38.8954 18.0001 38 17.1046 38 16.0001C38 14.4282 37.5173 13.4427 36.9784 12.8679C36.43 12.2829 35.7134 12 35 12C34.2866 12 33.57 12.2829 33.0216 12.8679Z" fill="#0C5497"/>
<path fill-rule="evenodd" clip-rule="evenodd" d="M28 26.5833C30.4895 23.7628 32 20.0578 32 16V0L27.3137 4.68629C24.4183 1.79086 20.4183 0 16 0C11.5817 0 7.58172 1.79086 4.68629 4.68629L0 0V16C0 20.0578 1.51055 23.7628 4 26.5833V30C4 31.1046 4.89543 32 6 32C7.10457 32 8 31.1046 8 30V29.8595C8.63997 30.2297 9.30795 30.5568 10 30.837V34C10 35.1046 10.8954 36 12 36C13.1046 36 14 35.1046 14 34V31.8762C14.6552 31.9579 15.3227 32 16 32C16.6773 32 17.3448 31.9579 18 31.8762V34C18 35.1046 18.8954 36 20 36C21.1046 36 22 35.1046 22 34V30.837C22.692 30.5568 23.36 30.2297 24 29.8595V30C24 31.1046 24.8954 32 26 32C27.1046 32 28 31.1046 28 30V26.5833Z" fill="#0C5497"/>
<circle cx="8" cy="10" r="2" fill="#C4C4C4"/>
<circle cx="24" cy="10" r="2" fill="#C4C4C4"/>
<path fill-rule="evenodd" clip-rule="evenodd" d="M19 10C18.4477 10 18 10.4477 18 11C18 11.7286 17.7367 12.2016 17.3981 12.5026C17.0412 12.8199 16.5369 13 16 13C15.4631 13 14.9588 12.8199 14.6019 12.5026C14.2633 12.2016 14 11.7286 14 11C14 10.4477 13.5523 10 13 10C12.4477 10 12 10.4477 12 11C12 12.2714 12.4867 13.2984 13.2731 13.9974C14.0412 14.6801 15.0369 15 16 15C16.9631 15 17.9588 14.6801 18.7269 13.9974C19.5133 13.2984 20 12.2714 20 11C20 10.4477 19.5523 10 19 10Z" fill="#C4C4C4"/>
</svg>
