<svg width="60" height="60" viewBox="0 0 60 60" fill="none" xmlns="http://www.w3.org/2000/svg">
<rect x="0.5" y="0.5" width="59" height="59" rx="23.5" fill="#C4C4C4" stroke="#A77C5D"/>
<path fill-rule="evenodd" clip-rule="evenodd" d="M47.0216 26.8679C46.4827 27.4427 46 28.4282 46 30C46 31.1046 45.1046 32 44 32C42.8954 32 42 31.1046 42 30C42 27.5719 42.7673 25.5573 44.1034 24.1321C45.43 22.7171 47.2134 22 49 22C50.7866 22 52.57 22.7172 53.8966 24.1321C55.2327 25.5573 56 27.5719 56 30.0001C56 31.1046 55.1046 32.0001 54 32.0001C52.8954 32.0001 52 31.1046 52 30.0001C52 28.4282 51.5173 27.4427 50.9784 26.8679C50.43 26.2829 49.7134 26 49 26C48.2866 26 47.57 26.2829 47.0216 26.8679Z" fill="#0C5497"/>
<path fill-rule="evenodd" clip-rule="evenodd" d="M42 40.5833C44.4895 37.7628 46 34.0578 46 30V14L41.3137 18.6863C38.4183 15.7909 34.4183 14 30 14C25.5817 14 21.5817 15.7909 18.6863 18.6863L14 14V30C14 34.0578 15.5105 37.7628 18 40.5833V44C18 45.1046 18.8954 46 20 46C21.1046 46 22 45.1046 22 44V43.8595C22.64 44.2297 23.308 44.5568 24 44.837V48C24 49.1046 24.8954 50 26 50C27.1046 50 28 49.1046 28 48V45.8762C28.6552 45.9579 29.3227 46 30 46C30.6773 46 31.3448 45.9579 32 45.8762V48C32 49.1046 32.8954 50 34 50C35.1046 50 36 49.1046 36 48V44.837C36.692 44.5568 37.36 44.2297 38 43.8595V44C38 45.1046 38.8954 46 40 46C41.1046 46 42 45.1046 42 44V40.5833Z" fill="#0C5497"/>
<circle cx="22" cy="24" r="2" fill="#C4C4C4"/>
<circle cx="38" cy="24" r="2" fill="#C4C4C4"/>
<path fill-rule="evenodd" clip-rule="evenodd" d="M33 24C32.4477 24 32 24.4477 32 25C32 25.7286 31.7367 26.2016 31.3981 26.5026C31.0412 26.8199 30.5369 27 30 27C29.4631 27 28.9588 26.8199 28.6019 26.5026C28.2633 26.2016 28 25.7286 28 25C28 24.4477 27.5523 24 27 24C26.4477 24 26 24.4477 26 25C26 26.2714 26.4867 27.2984 27.2731 27.9974C28.0412 28.6801 29.0369 29 30 29C30.9631 29 31.9588 28.6801 32.7269 27.9974C33.5133 27.2984 34 26.2714 34 25C34 24.4477 33.5523 24 33 24Z" fill="#C4C4C4"/>
</svg>
