<svg width="36" height="36" viewBox="0 0 36 36" fill="none" xmlns="http://www.w3.org/2000/svg">
<rect x="0.5" y="0.5" width="35" height="35" rx="17.5" fill="#C4C4C4" stroke="#A77C5D"/>
<path fill-rule="evenodd" clip-rule="evenodd" d="M28.2129 16.1207C27.8896 16.4656 27.6 17.0569 27.6 18C27.6 18.6627 27.0627 19.2 26.4 19.2C25.7372 19.2 25.2 18.6627 25.2 18C25.2 16.5431 25.6604 15.3344 26.462 14.4793C27.258 13.6303 28.328 13.2 29.4 13.2C30.472 13.2 31.542 13.6303 32.3379 14.4793C33.1396 15.3344 33.6 16.5431 33.6 18C33.6 18.6628 33.0627 19.2 32.4 19.2C31.7372 19.2 31.2 18.6628 31.2 18C31.2 17.0569 30.9104 16.4656 30.587 16.1207C30.258 15.7697 29.828 15.6 29.4 15.6C28.972 15.6 28.542 15.7697 28.2129 16.1207Z" fill="#0C5497"/>
<path fill-rule="evenodd" clip-rule="evenodd" d="M25.2 24.35C26.6937 22.6577 27.6 20.4347 27.6 18V8.39999L24.7882 11.2118C23.051 9.47451 20.651 8.39999 18 8.39999C15.349 8.39999 12.949 9.47451 11.2118 11.2118L8.39999 8.39999V18C8.39999 20.4347 9.30632 22.6577 10.8 24.35V26.4C10.8 27.0627 11.3373 27.6 12 27.6C12.6627 27.6 13.2 27.0627 13.2 26.4V26.3157C13.584 26.5378 13.9848 26.7341 14.4 26.9022V28.8C14.4 29.4627 14.9373 30 15.6 30C16.2627 30 16.8 29.4627 16.8 28.8V27.5257C17.1931 27.5747 17.5936 27.6 18 27.6C18.4064 27.6 18.8069 27.5747 19.2 27.5257V28.8C19.2 29.4627 19.7373 30 20.4 30C21.0627 30 21.6 29.4627 21.6 28.8V26.9022C22.0152 26.7341 22.416 26.5378 22.8 26.3157V26.4C22.8 27.0627 23.3373 27.6 24 27.6C24.6627 27.6 25.2 27.0627 25.2 26.4V24.35Z" fill="#0C5497"/>
<ellipse cx="13.2" cy="14.4" rx="1.2" ry="1.2" fill="#C4C4C4"/>
<circle cx="22.8" cy="14.4" r="1.2" fill="#C4C4C4"/>
<path fill-rule="evenodd" clip-rule="evenodd" d="M19.8 14.4C19.4686 14.4 19.2 14.6686 19.2 15C19.2 15.4372 19.042 15.721 18.8389 15.9015C18.6247 16.0919 18.3222 16.2 18 16.2C17.6778 16.2 17.3753 16.0919 17.1611 15.9015C16.958 15.721 16.8 15.4372 16.8 15C16.8 14.6686 16.5314 14.4 16.2 14.4C15.8686 14.4 15.6 14.6686 15.6 15C15.6 15.7628 15.892 16.379 16.3639 16.7984C16.8247 17.2081 17.4222 17.4 18 17.4C18.5778 17.4 19.1753 17.2081 19.6361 16.7984C20.108 16.379 20.4 15.7628 20.4 15C20.4 14.6686 20.1314 14.4 19.8 14.4Z" fill="#C4C4C4"/>
</svg>
