<svg width="34" height="34" viewBox="0 0 34 34" fill="none" xmlns="http://www.w3.org/2000/svg">
<path d="M33.1667 14.1667L18.1667 0.833313C17.5 0.333313 16.6667 0.333313 16 0.833313L1 14.1667C0.333333 14.8333 0.166667 15.8333 0.833333 16.5C1.5 17.1667 2.5 17.3333 3.16667 16.6667L3.66667 16V32C3.66667 33 4.33333 33.6667 5.33333 33.6667H28.6667C29.6667 33.6667 30.3333 33 30.3333 32V16L30.8333 16.5C31.5 17.1667 32.5 17 33.1667 16.3333C33.8333 15.8333 33.8333 14.6667 33.1667 14.1667ZM17 15.3333C19.5 15.3333 21.5 17.3333 21.5 19.8333C21.5 22.3333 19.5 24.3333 17 24.3333C14.5 24.3333 12.5 22.3333 12.5 19.8333C12.5 17.3333 14.5 15.3333 17 15.3333ZM8.66666 30.3333C8.66666 30.1667 8.66666 30.1667 8.83333 30C12.5 25.5 19.1667 24.6667 23.6667 28.3333C24.3333 28.8333 24.8333 29.3333 25.3333 30C25.3333 30 25.3333 30.1667 25.5 30.3333H8.66666Z" fill="#332317"/>
</svg>
