<svg width="24" height="24" viewBox="0 0 24 24" fill="none" xmlns="http://www.w3.org/2000/svg">
<path d="M7.84091 14C7.92877 14 8 13.7761 8 13.5C8 13.2239 7.92877 13 7.84091 13H4.65909C4.57123 13 4.5 13.2239 4.5 13.5C4.5 13.7761 4.57123 14 4.65909 14H7.84091Z" fill="black"/>
<path d="M13.3409 14C13.4288 14 13.5 13.7761 13.5 13.5C13.5 13.2239 13.4288 13 13.3409 13H10.1591C10.0712 13 10 13.2239 10 13.5C10 13.7761 10.0712 14 10.1591 14H13.3409Z" fill="black"/>
<path d="M18.8409 14C18.9288 14 19 13.7761 19 13.5C19 13.2239 18.9288 13 18.8409 13H15.6591C15.5712 13 15.5 13.2239 15.5 13.5C15.5 13.7761 15.5712 14 15.6591 14H18.8409Z" fill="black"/>
<path d="M18.3409 11C18.7049 11 19 10.7761 19 10.5C19 10.2239 18.7049 10 18.3409 10L5.15909 10C4.79509 10 4.5 10.2239 4.5 10.5C4.5 10.7761 4.79509 11 5.15909 11L18.3409 11Z" fill="black"/>
</svg>
