<svg width="24" height="24" viewBox="0 0 24 24" fill="none" xmlns="http://www.w3.org/2000/svg">
<path d="M16.1591 10C16.0712 10 16 10.2239 16 10.5C16 10.7761 16.0712 11 16.1591 11H19.3409C19.4288 11 19.5 10.7761 19.5 10.5C19.5 10.2239 19.4288 10 19.3409 10H16.1591Z" fill="black"/>
<path d="M10.6591 10C10.5712 10 10.5 10.2239 10.5 10.5C10.5 10.7761 10.5712 11 10.6591 11H13.8409C13.9288 11 14 10.7761 14 10.5C14 10.2239 13.9288 10 13.8409 10H10.6591Z" fill="black"/>
<path d="M5.15909 10C5.07123 10 5 10.2239 5 10.5C5 10.7761 5.07123 11 5.15909 11H8.34091C8.42877 11 8.5 10.7761 8.5 10.5C8.5 10.2239 8.42877 10 8.34091 10H5.15909Z" fill="black"/>
<path d="M5.65909 13C5.29509 13 5 13.2239 5 13.5C5 13.7761 5.29509 14 5.65909 14H18.8409C19.2049 14 19.5 13.7761 19.5 13.5C19.5 13.2239 19.2049 13 18.8409 13H5.65909Z" fill="black"/>
</svg>
